<?xml version="1.0"?><svg version="1.2" baseProfile="tiny-ps" viewBox="0 0 300 300" xmlns="http://www.w3.org/2000/svg" xmlns:xlink="http://www.w3.org/1999/xlink"><title>mether</title><g><g fill="#2ce3e7" transform="matrix(.1 0 0 -.1 0 300)"><path d="M0 1500V0h3000v3000H0V1500z"/></g><g fill="#375062" transform="matrix(.1 0 0 -.1 0 300)"><path d="M0 1500V0h3000v3000H0V1500zm1370 374c0-4-12-28-27-55l-26-50 87-129c49-72 92-130 97-130 4 0 47 58 95 130l87 130-26 49c-15 27-27 51-27 55 0 3 69 6 154 6h155l7-11 7-12-215-213-214-214h-48l-214 214-215 213 7 12 7 11h155c85 0 154-3 154-6zm-218-466-132-133v530l132-133 133-132-133-132zm828 130v-263l-132 132-133 133 130 130c71 71 131 130 132 130 2 0 3-118 3-262zm-584-108 62-60h84l62 60c35 33 67 60 73 60s70-61 142-136l132-137-13-8-13-9h-850l-12 8-13 8 133 137c72 75 136 137 141 137s37-27 72-60z"/></g><g fill="#24323c" transform="matrix(.1 0 0 -.1 0 300)"><path d="M0 1500V0h3000v3000H0V1500zm1500 721v-49l-67-40c-148-89-333-159-467-177l-49-7 8-126c4-70 11-151 16-182l9-55-1-145-1-145-18 40c-26 56-58 183-75 297l-15 98v297l63 7c164 18 326 76 494 176 54 33 99 59 101 60 1 0 2-22 2-49zm-42-201-43-80h-250l80 33c44 18 118 54 165 79 47 26 86 47 88 48 2 0-16-36-40-80zm40-130-3-40-63-30-63-30 36 63c20 34 48 83 63 109l27 47 3-40c2-21 2-57 0-79zm-147-65-31-55 87-130c49-71 90-129 93-129s44 58 93 129l88 129-32 56-31 55h331l5-8 5-9-222-221-223-222h-28l-223 222-222 221 5 9 5 8h331l-31-55zm-203-146c70-72 127-135 127-140 0-12-245-269-256-269h-9v270c0 149 3 270 6 270s63-59 132-131zm840-276-3-138-133 135c-72 74-131 138-130 142 2 4 62 67 133 140l130 133 3-137c1-76 1-200 0-275zm-509 277 22-15-3-47-3-47-59 86-58 86 39-24c22-13 50-31 62-39zm-92-239 63-59 29-7 30-6 34 16 35 16 47 51 48 50 140-140 140-140-7-11-7-11h-878l-7 11-7 11 139 139 139 139s28-27 62-59zm-287-301h36l37-50c45-61 169-167 259-223l67-42 1-47v-48h-7c-15 0-130 75-208 135-105 82-214 200-268 292l-8 12 28-14 28-15h35zm400-120V900h-8c-27 0-222 158-262 212l-21 28h291v-120z"/></g><g fill="#15181d" transform="matrix(.1 0 0 -.1 0 300)"><path d="M0 1500V0h3000v3000H0V1500zm1603 713c165-97 311-150 474-174l82-11 7-65 6-64-6-92c-16-206-52-384-101-492l-23-50-1 136-1 136 15 99 15 99v211l-91 17-91 17-102 40-101 40-92 54-92 54-48-31c-26-16-97-54-158-83l-110-53-95-26c-52-14-110-25-127-25h-33v-89c0-49 7-142 15-208l16-118-3-140-3-140-27 70c-35 92-54 161-73 270l-16 90-6 167-6 167 24 9c13 5 53 13 89 17s103 18 150 32l85 24 110 54c61 30 133 70 160 89l50 34 24-15c13-8 50-31 84-50zm182-250 60-22h-130l-130-1-39 70c-22 39-42 70-45 70s-22-30-41-66-40-70-46-75l-12-10-133 3-134 3 15 7c8 3 47 18 85 32 39 14 113 50 165 79l95 53 115-60c63-33 142-70 175-83zm-217-62 59-109-61 29-61 29-3-14-3-15-14 5-13 6-29-15-28-15 28-7 28-7-4-12c-6-17-35-19-69-5l-30 12 5 17c7 29 122 218 129 214 3-2 33-53 66-113zm-193-21 6-10-30-49-30-49 86-126c47-69 89-126 93-126 11 0 170 235 170 251 0 7-12 32-26 57l-26 44 10 10 10 10 150-4 151-3 13-13 12-12-220-220-220-220h-48l-218 217c-120 120-218 221-218 226 0 4 10 11 23 16l22 9 142 1 142 1 6-10zm-215-205 135-135-135-135c-74-74-138-135-142-135h-8v540h8c4 0 68-61 142-135zm830-135v-270h-8c-4 0-68 61-142 135l-135 135 135 135c74 74 138 135 142 135h8v-270zm-538 163c21-12 43-23 50-23s39 16 71 35l58 35-57-82c-31-46-61-89-67-96l-10-12-54 77c-30 43-59 86-65 96l-10 19 24-13c13-7 40-23 60-36zm38 27c0-5-4-10-9-10-6 0-13 5-16 10l-6 10h15c9 0 16-4 16-10zm-105-281 50-51 33-14 32-14 33 14 32 14 50 51c27 28 53 51 58 51 13 0 286-284 281-292l-5-8h-898l-5 8-5 8 137 141c75 77 142 141 147 142 6 0 33-22 60-50zm-295-299h30l108-108 107-108 82-53 83-53 43 25c79 47 162 115 246 203l84 87 37 2c21 2 47 8 59 14 29 16 26 6-16-53-90-124-240-260-377-340l-77-46-32 16c-169 88-383 285-456 422l-12 23 30-15 30-16h31zm701-19c-23-43-262-241-291-241-33 0-300 225-300 252v8h300l300-1-9-18z"/></g></g></svg>